<?xml version="1.0" encoding="UTF-8" standalone="no"?>
<!DOCTYPE svg PUBLIC "-//W3C//DTD SVG 1.1//EN" "http://www.w3.org/Graphics/SVG/1.1/DTD/svg11.dtd">
<svg width="100%" height="100%" viewBox="0 0 24 24" version="1.1" xmlns="http://www.w3.org/2000/svg" xmlns:xlink="http://www.w3.org/1999/xlink" xml:space="preserve" xmlns:serif="http://www.serif.com/" style="fill-rule:evenodd;clip-rule:evenodd;stroke-linecap:round;stroke-linejoin:round;">
    <path d="M4.062,13C4.021,12.672 4,12.339 4,12C4,7.582 7.582,4 12,4C14.501,4 16.733,5.147 18.2,6.944M19.938,11C19.979,11.328 20,11.661 20,12C20,16.418 16.418,20 12,20C9.611,20 7.466,18.953 6,17.292M9,17L6,17L6,17.292M18.2,4L18.2,6.944M18.2,6.944L18.2,7L15.2,7M6,20L6,17.292" style="fill:none;fill-rule:nonzero;stroke:black;stroke-width:2px;"/>
    <g transform="matrix(-0,-1,1,-0,-0.007634,23.505663)">
        <path d="M8.011,12L15,12" style="fill:none;stroke:black;stroke-width:2px;stroke-miterlimit:1.5;"/>
    </g>
    <g transform="matrix(-0.707107,-0.707107,0.707107,-0.707107,12.324193,16.973324)">
        <path d="M1.267,5.052L1.267,0.824L5.526,0.824" style="fill:none;stroke:black;stroke-width:2px;stroke-miterlimit:1.5;"/>
    </g>
</svg>
